<svg width="120" height="120" viewBox="0 0 120 120" fill="none" xmlns="http://www.w3.org/2000/svg">
<g opacity="0.6">
<path d="M16.0184 43.6914L60.0007 60.952V109.282L14.7617 91.0348L16.0184 43.6914Z" fill="#ABB4CD"/>
<path d="M103.991 43.6914L60.3506 60.952V109.282L105.238 91.0348L103.991 43.6914Z" fill="#939DBD"/>
<path d="M16.2408 43.6914L1.80469 58.5786L46.0152 77.526L60.0002 60.8343L16.2408 43.6914Z" fill="#DCDFEA"/>
<path d="M103.759 43.6914L118.195 58.5786L73.9848 77.526L59.9998 60.8343L103.759 43.6914Z" fill="#DCDFEA"/>
<path d="M46.0508 10.7188L60.207 26.3821L16.3794 43.6911L2.39439 26.9993L46.0508 10.7188Z" fill="#DCDFEA"/>
<path d="M74.4361 11.9492L60 26.8364L104.211 45.7838L118.195 29.0921L74.4361 11.9492Z" fill="#DCDFEA"/>
<path d="M59.9996 26.5488L103.759 43.6917L59.9996 60.8345L16.2402 43.6917L59.9996 26.5488Z" fill="#C0C7D9"/>
</g>
</svg>
