<svg width="16" height="16" viewBox="0 0 16 16" fill="none" xmlns="http://www.w3.org/2000/svg">
<path d="M10.7732 11.981L12.1465 13.3543L12.8535 12.6472L3.14969 2.94336L2.44266 3.65051L3.65332 4.86111C2.60522 5.58621 1.72754 6.57638 1.11694 7.77066L1 8.00064L1.11694 8.23062C2.46143 10.8706 5.10156 12.5006 8.00488 12.5006C8.96875 12.5006 9.9043 12.3198 10.7732 11.981ZM9.99121 11.199C9.35718 11.3965 8.68921 11.5006 8.00488 11.5006C5.5498 11.5006 3.3186 10.1706 2.1106 8.00064C2.66992 6.99582 3.44873 6.17117 4.36743 5.57522L5.45093 6.65878C5.2395 7.05948 5.11987 7.51608 5.11987 8.00064C5.11987 9.59115 6.40918 10.8805 7.99976 10.8805C8.48438 10.8805 8.94092 10.7608 9.34155 10.5495L9.99121 11.199ZM6.21143 7.41934L8.58105 9.78891C8.39795 9.84836 8.20264 9.88052 7.99976 9.88052C6.96143 9.88052 6.11987 9.03885 6.11987 8.00064C6.11987 7.79776 6.15186 7.60238 6.21143 7.41934Z" fill="#6E7282"/>
<path d="M14.8831 8.23062L15 8.00064L14.8831 7.77066C13.5386 5.14065 10.8984 3.50064 8.00488 3.50064C7.14868 3.50064 6.31519 3.64328 5.53125 3.91195L6.3313 4.71213C6.87012 4.57321 7.4314 4.50064 8.00488 4.50064C10.4502 4.50064 12.6814 5.83066 13.8992 8.00064C13.3894 8.91611 12.696 9.6821 11.8809 10.2617L12.5894 10.9701C13.53 10.2643 14.3201 9.33603 14.8831 8.23062Z" fill="#6E7282"/>
<path d="M10.8796 8.00064C10.8796 8.37454 10.8083 8.73178 10.6787 9.05954L9.86401 8.24478C9.87427 8.16488 9.87964 8.08334 9.87964 8.00064C9.87964 6.96243 9.03784 6.12082 7.99976 6.12082C7.91699 6.12082 7.83545 6.12613 7.75562 6.1365L6.94092 5.32168C7.26855 5.19204 7.62598 5.12082 7.99976 5.12082C9.59033 5.12082 10.8796 6.41018 10.8796 8.00064Z" fill="#6E7282"/>
</svg>
