<svg width="16" height="16" viewBox="0 0 16 16" fill="none" xmlns="http://www.w3.org/2000/svg">
<g clip-path="url(#clip0_422_14445)">
<mask id="mask0_422_14445" style="mask-type:luminance" maskUnits="userSpaceOnUse" x="0" y="0" width="16" height="16">
<rect width="16" height="16" fill="white"/>
</mask>
<g mask="url(#mask0_422_14445)">
<path d="M8 1.33301C11.6817 1.33318 14.666 4.31821 14.666 8C14.6658 11.6816 11.6816 14.6658 8 14.666C4.31821 14.666 1.33318 11.6817 1.33301 8C1.33301 4.3181 4.3181 1.33301 8 1.33301ZM7.33301 11.333H8.66602V10H7.33301V11.333ZM8 4.33301C6.868 4.33301 5.92364 5.13947 5.71094 6.20898L7.01855 6.46973C7.1099 6.01156 7.515 5.66602 8 5.66602C8.55201 5.66619 8.99982 6.11399 9 6.66602C9 7.21817 8.55212 7.66584 8 7.66602C7.6318 7.66602 7.33301 7.96481 7.33301 8.33301V9.33301H8.66602V8.90332C9.62982 8.61645 10.333 7.72302 10.333 6.66602C10.3328 5.37761 9.28841 4.33318 8 4.33301Z" fill="#AAAAAA"/>
</g>
</g>
<defs>
<clipPath id="clip0_422_14445">
<rect width="16" height="16" fill="white"/>
</clipPath>
</defs>
</svg>
