<svg width="24" height="24" viewBox="0 0 24 24" fill="none" xmlns="http://www.w3.org/2000/svg">
<rect opacity="0.01" width="24" height="24" fill="#D8D8D8"/>
<path d="M5.41971 3.69628C5.48415 3.52217 5.73041 3.52217 5.79484 3.69629L6.18058 4.73859C6.23122 4.87544 6.33912 4.98333 6.47596 5.03397L7.51827 5.41971C7.69238 5.48415 7.69238 5.73041 7.51827 5.79484L6.47596 6.18058C6.33912 6.23122 6.23122 6.33912 6.18058 6.47596L5.79484 7.51827C5.73041 7.69238 5.48415 7.69238 5.41971 7.51827L5.03397 6.47596C4.98333 6.33912 4.87544 6.23122 4.73859 6.18058L3.69628 5.79484C3.52217 5.73041 3.52217 5.48415 3.69629 5.41971L4.73859 5.03397C4.87544 4.98333 4.98333 4.87544 5.03397 4.73859L5.41971 3.69628Z" fill="#6E7282"/>
<path d="M17.3346 14.847C17.4782 14.5392 17.9159 14.5392 18.0595 14.847L18.6973 16.2135C18.7966 16.4264 18.9677 16.5975 19.1806 16.6968L20.5471 17.3346C20.8549 17.4782 20.8549 17.9159 20.5471 18.0595L19.1806 18.6973C18.9677 18.7966 18.7966 18.9677 18.6973 19.1806L18.0595 20.5471C17.9159 20.8549 17.4782 20.8549 17.3346 20.5471L16.6968 19.1806C16.5975 18.9677 16.4264 18.7966 16.2135 18.6973L14.847 18.0595C14.5392 17.9159 14.5392 17.4782 14.847 17.3346L16.2135 16.6968C16.4264 16.5975 16.5975 16.4264 16.6968 16.2135L17.3346 14.847Z" fill="#6E7282"/>
<path d="M4.41595 18.7714C4.40196 18.8414 4.46365 18.9031 4.53362 18.8891L8.06689 18.1825C8.45408 18.105 8.80967 17.9147 9.08888 17.6355L19.9212 6.80318C20.3117 6.41266 20.3117 5.77949 19.9212 5.38897L17.9161 3.38386C17.5256 2.99334 16.8924 2.99334 16.5019 3.38386L5.66956 14.2162C5.39035 14.4954 5.20004 14.851 5.12261 15.2382L4.41595 18.7714Z" stroke="#6E7282" stroke-width="1.5"/>
<path d="M14.6445 5.24121L18.0639 8.66053" stroke="#6E7282" stroke-width="1.5"/>
<path d="M4.77049 15.8828L6.05273 14.6006C6.05273 14.6006 5.89037 15.2931 6.9506 16.3533C8.01082 17.4135 8.70329 17.2511 8.70329 17.2511L7.42104 18.5334L4.81352 18.4904L4.77049 15.8828Z" fill="#6E7282"/>
</svg>
