<svg width="24" height="24" viewBox="0 0 24 24" fill="none" xmlns="http://www.w3.org/2000/svg">
<rect opacity="0.01" width="24" height="24" fill="#D8D8D8"/>
<rect opacity="0.01" x="2" y="2" width="20" height="20" fill="#D8D8D8"/>
<path d="M16.3965 5.27539C17.4632 5.2755 18.5889 5.76388 19.4004 6.22559C19.7934 6.44942 20.043 6.90669 20.043 7.45996V18.0586C20.0428 18.2277 19.9441 18.4116 19.707 18.5449C19.4646 18.6812 19.1722 18.7044 18.9482 18.6123C18.2089 18.3079 17.3184 18.0518 16.3965 18.0518C15.0156 18.0518 13.6894 18.6272 12.8096 19.1094C12.3171 19.3793 11.682 19.3791 11.1895 19.1094C10.3097 18.6273 8.9834 18.0519 7.60254 18.0518C6.68053 18.0518 5.78918 18.3079 5.0498 18.6123C4.82586 18.7043 4.5334 18.6811 4.29102 18.5449C4.05408 18.4116 3.95522 18.2277 3.95508 18.0586V7.45996L3.9668 7.25684C4.02007 6.79556 4.25462 6.42133 4.59863 6.22559C5.41015 5.76385 6.53582 5.27538 7.60254 5.27539C8.58381 5.27548 9.59377 5.53244 10.3799 5.80469C10.7683 5.93919 11.0917 6.07376 11.3164 6.17383C11.4285 6.22375 11.5155 6.26499 11.5732 6.29297C11.602 6.30692 11.6232 6.31838 11.6367 6.3252C11.6435 6.3286 11.6486 6.33063 11.6514 6.33203C11.6527 6.33273 11.654 6.33283 11.6543 6.33301H11.6533L11.999 6.5127L12.3447 6.33301L12.3467 6.33203C12.3494 6.33063 12.3546 6.32857 12.3613 6.3252C12.3749 6.31839 12.396 6.30692 12.4248 6.29297C12.4825 6.265 12.5696 6.22373 12.6816 6.17383C12.9064 6.07375 13.2307 5.9392 13.6191 5.80469C14.4053 5.53247 15.4153 5.27538 16.3965 5.27539Z" fill="white" stroke="white" stroke-width="1.5"/>
<path d="M12 7.65903C12 7.54899 12.027 7.44132 12.0855 7.34814C12.3122 6.9872 12.9953 6.01105 14.1985 5.19727C15.4742 4.33452 17.2146 4.06899 17.7198 4.00771C17.7968 3.99838 17.8627 4.05878 17.8627 4.13627L17.8627 15.837C17.8627 16.1685 17.6174 16.4499 17.2915 16.5105C16.6223 16.6349 15.4962 16.8888 14.6383 17.3084C13.3929 17.9175 13.3082 18.1535 12.1652 19.1462C12.1007 19.2021 12 19.1568 12 19.0714V7.65903Z" fill="#BADEFF" stroke="#BADEFF" stroke-width="1.5"/>
</svg>
