<svg width="24" height="24" viewBox="0 0 24 24" fill="none" xmlns="http://www.w3.org/2000/svg">
<rect opacity="0.01" width="24" height="24" fill="#D8D8D8"/>
<rect opacity="0.01" x="2" y="2" width="20" height="20" fill="#D8D8D8"/>
<path d="M16.3965 5.27441C17.4632 5.27452 18.5889 5.76291 19.4004 6.22461C19.7934 6.44844 20.043 6.90571 20.043 7.45898V18.0576C20.0428 18.2267 19.9441 18.4106 19.707 18.5439C19.4646 18.6802 19.1722 18.7034 18.9482 18.6113C18.2089 18.3069 17.3184 18.0508 16.3965 18.0508C15.0156 18.0508 13.6894 18.6262 12.8096 19.1084C12.3171 19.3783 11.682 19.3781 11.1895 19.1084C10.3097 18.6263 8.9834 18.0509 7.60254 18.0508C6.68053 18.0508 5.78918 18.3069 5.0498 18.6113C4.82586 18.7033 4.5334 18.6802 4.29102 18.5439C4.05408 18.4106 3.95522 18.2267 3.95508 18.0576V7.45898L3.9668 7.25586C4.02007 6.79458 4.25462 6.42035 4.59863 6.22461C5.41015 5.76287 6.53582 5.2744 7.60254 5.27441C8.58381 5.2745 9.59377 5.53147 10.3799 5.80371C10.7683 5.93821 11.0917 6.07278 11.3164 6.17285C11.4285 6.22278 11.5155 6.26401 11.5732 6.29199C11.602 6.30595 11.6232 6.3174 11.6367 6.32422C11.6435 6.32763 11.6486 6.32965 11.6514 6.33105C11.6527 6.33176 11.654 6.33186 11.6543 6.33203H11.6533L11.999 6.51172L12.3447 6.33203L12.3467 6.33105C12.3494 6.32966 12.3546 6.32759 12.3613 6.32422C12.3749 6.31741 12.396 6.30594 12.4248 6.29199C12.4825 6.26403 12.5696 6.22276 12.6816 6.17285C12.9064 6.07277 13.2307 5.93822 13.6191 5.80371C14.4053 5.53149 15.4153 5.2744 16.3965 5.27441Z" stroke="#6E7282" stroke-width="1.5"/>
<path d="M12 7.65806C12 7.54801 12.027 7.44034 12.0855 7.34716C12.3122 6.98623 12.9953 6.01007 14.1985 5.1963C15.4742 4.33354 17.2146 4.06801 17.7198 4.00674C17.7968 3.99741 17.8627 4.0578 17.8627 4.13529L17.8627 15.836C17.8627 16.1675 17.6174 16.4489 17.2915 16.5095C16.6223 16.6339 15.4962 16.8878 14.6383 17.3074C13.3929 17.9165 13.3082 18.1525 12.1652 19.1452C12.1007 19.2012 12 19.1558 12 19.0705V7.65806Z" fill="white" stroke="#6E7282" stroke-width="1.5"/>
</svg>
