<svg width="24" height="24" viewBox="0 0 24 24" fill="none" xmlns="http://www.w3.org/2000/svg">
<path d="M12 19C11.5348 19.6215 10.9309 20.1259 10.2365 20.4731C9.54216 20.8203 8.77635 21.0007 8 21C7.41112 21.0006 6.82677 20.897 6.274 20.694C5.408 20.376 4.565 20.574 3.717 20.806C3.63982 20.8288 3.55805 20.8314 3.4796 20.8134C3.40115 20.7954 3.32866 20.7575 3.26915 20.7033C3.20963 20.6491 3.1651 20.5805 3.13985 20.5041C3.1146 20.4276 3.10948 20.346 3.125 20.267C3.3 19.343 3.496 18.363 3.224 17.483C3.0752 17.0027 2.99968 16.5028 3 16C2.99946 15.2237 3.17994 14.4579 3.52712 13.7636C3.87431 13.0692 4.37862 12.4654 5 12C5.96286 11.2779 7.1539 10.9273 8.35445 11.0126C9.55499 11.0979 10.6845 11.6134 11.5355 12.4645C12.3866 13.3155 12.9021 14.445 12.9874 15.6456C13.0727 16.8461 12.7221 18.0371 12 19ZM5 12C5 7.315 7.875 3 13 3C14.283 2.99978 15.5471 3.30811 16.6859 3.899C17.8247 4.48988 18.8047 5.34599 19.5432 6.39508C20.2817 7.44418 20.757 8.6555 20.9291 9.92686C21.1012 11.1982 20.965 12.4923 20.532 13.7C20.056 15.026 20.569 16.802 20.869 18.268C20.8865 18.3461 20.8829 18.4274 20.8586 18.5036C20.8343 18.5798 20.7902 18.6482 20.7307 18.7017C20.6713 18.7552 20.5987 18.792 20.5204 18.8082C20.442 18.8244 20.3608 18.8195 20.285 18.794C18.973 18.384 17.433 17.808 16.2 18.328C14.866 18.89 13.464 19 12 19" stroke="#6E7282" stroke-width="1.5" stroke-linecap="round" stroke-linejoin="round"/>
</svg>
