<svg width="24" height="24" viewBox="0 0 24 24" fill="none" xmlns="http://www.w3.org/2000/svg">
<path d="M20.0029 4.24805C20.9694 4.24819 21.7528 5.03161 21.7529 5.99805V18.002C21.7527 18.9683 20.9693 19.7518 20.0029 19.752H3.99805C3.03165 19.7518 2.24825 18.9683 2.24805 18.002V5.99805C2.24819 5.03161 3.03161 4.24819 3.99805 4.24805H20.0029ZM20.5498 4.98535C20.2665 4.68317 19.7914 4.66787 19.4893 4.95117L12 11.9717L4.51074 4.95117C4.20856 4.66787 3.73447 4.68317 3.45117 4.98535C3.16787 5.28754 3.18317 5.76162 3.48535 6.04492L11.4873 13.5469C11.7758 13.8173 12.2242 13.8173 12.5127 13.5469L20.5156 6.04492C20.8174 5.76168 20.8327 5.28745 20.5498 4.98535Z" fill="white"/>
</svg>
