<svg width="24" height="24" viewBox="0 0 24 24" fill="none" xmlns="http://www.w3.org/2000/svg">
<rect opacity="0.01" width="24" height="24" fill="#D8D8D8"/>
<path d="M5.41971 3.69628C5.48415 3.52217 5.73041 3.52217 5.79484 3.69629L6.18058 4.73859C6.23122 4.87544 6.33912 4.98333 6.47596 5.03397L7.51827 5.41971C7.69238 5.48415 7.69238 5.73041 7.51827 5.79484L6.47596 6.18058C6.33912 6.23122 6.23122 6.33912 6.18058 6.47596L5.79484 7.51827C5.73041 7.69238 5.48415 7.69238 5.41971 7.51827L5.03397 6.47596C4.98333 6.33912 4.87544 6.23122 4.73859 6.18058L3.69628 5.79484C3.52217 5.73041 3.52217 5.48415 3.69629 5.41971L4.73859 5.03397C4.87544 4.98333 4.98333 4.87544 5.03397 4.73859L5.41971 3.69628Z" fill="white" fill-opacity="0.6"/>
<path d="M17.3346 14.847C17.4782 14.5392 17.9159 14.5392 18.0595 14.847L18.6973 16.2135C18.7966 16.4264 18.9677 16.5975 19.1806 16.6968L20.5471 17.3346C20.8549 17.4782 20.8549 17.9159 20.5471 18.0595L19.1806 18.6973C18.9677 18.7966 18.7966 18.9677 18.6973 19.1806L18.0595 20.5471C17.9159 20.8549 17.4782 20.8549 17.3346 20.5471L16.6968 19.1806C16.5975 18.9677 16.4264 18.7966 16.2135 18.6973L14.847 18.0595C14.5392 17.9159 14.5392 17.4782 14.847 17.3346L16.2135 16.6968C16.4264 16.5975 16.5975 16.4264 16.6968 16.2135L17.3346 14.847Z" fill="white" fill-opacity="0.6"/>
<path d="M18.0637 9.72148L9.61937 18.1668C9.23553 18.5505 8.74632 18.8123 8.2141 18.9187L4.6809 19.6248C4.08645 19.7436 3.56254 19.2202 3.6809 18.6258L4.38793 15.0916C4.49444 14.5594 4.7561 14.0701 5.13988 13.6863L13.5842 5.24199L18.0637 9.72148ZM15.9719 2.85429C16.6553 2.17092 17.7631 2.17101 18.4465 2.85429L20.4524 4.85918C21.1356 5.54261 21.1357 6.65141 20.4524 7.33476L19.1243 8.66093L14.6448 4.18144L15.9719 2.85429Z" fill="white"/>
<path d="M4.77049 15.8838L6.05273 14.6016C6.05273 14.6016 5.89037 15.294 6.9506 16.3543C8.01082 17.4145 8.70329 17.2521 8.70329 17.2521L7.42104 18.5344L4.81352 18.4913L4.77049 15.8838Z" fill="white" fill-opacity="0.6"/>
</svg>
