<svg width="24" height="24" viewBox="0 0 24 24" fill="none" xmlns="http://www.w3.org/2000/svg">
<rect opacity="0.01" width="24" height="24" fill="#D8D8D8"/>
<rect opacity="0.01" x="2" y="2" width="20" height="20" fill="#D8D8D8"/>
<rect x="3" y="3" width="18" height="18" rx="2.5" stroke="#AAAFBC" stroke-width="1.5"/>
<path d="M3 12H21" stroke="#AAAFBC" stroke-width="1.5"/>
<path d="M15.75 6C15.8881 6 16 6.11193 16 6.25V7C16 7.82843 15.361 8.41421 15.361 8.41421C14.7219 9 13.8182 9 13.8182 9H10.1818C9.27808 9 8.63904 8.41421 8.63904 8.41421C8 7.82843 8 7 8 7V6.25C8 6.11193 8.11193 6 8.25 6H9.93182C10.0699 6 10.1818 6.11193 10.1818 6.25V7H13.8182V6.25C13.8182 6.11193 13.9301 6 14.0682 6H15.75Z" fill="#AAAFBC"/>
<path d="M15.75 15C15.8881 15 16 15.1119 16 15.25V16C16 16.8284 15.361 17.4142 15.361 17.4142C14.7219 18 13.8182 18 13.8182 18H10.1818C9.27808 18 8.63904 17.4142 8.63904 17.4142C8 16.8284 8 16 8 16V15.25C8 15.1119 8.11193 15 8.25 15H9.93182C10.0699 15 10.1818 15.1119 10.1818 15.25V16H13.8182V15.25C13.8182 15.1119 13.9301 15 14.0682 15H15.75Z" fill="#AAAFBC"/>
</svg>
