<svg width="24" height="24" viewBox="0 0 24 24" fill="none" xmlns="http://www.w3.org/2000/svg">
<rect opacity="0.01" width="24" height="24" fill="#D8D8D8"/>
<rect opacity="0.01" x="2" y="2" width="20" height="20" fill="#D8D8D8"/>
<path d="M12 3.75C14.6234 3.75 16.75 5.87665 16.75 8.5C16.75 11.1234 14.6234 13.25 12 13.25C9.37665 13.25 7.25 11.1234 7.25 8.5C7.25 5.87665 9.37665 3.75 12 3.75Z" fill="white" stroke="white" stroke-width="1.5"/>
<path d="M6.28078 19.75C5.63021 19.75 5.15285 19.1386 5.31063 18.5075L5.52659 17.6437C5.80481 16.5307 6.80477 15.75 7.95194 15.75H16.0481C17.1952 15.75 18.1952 16.5307 18.4734 17.6437L18.6894 18.5075C18.8472 19.1386 18.3698 19.75 17.7192 19.75H6.28078Z" fill="white" stroke="white" stroke-width="1.5"/>
</svg>
