<svg width="24" height="24" viewBox="0 0 24 24" fill="none" xmlns="http://www.w3.org/2000/svg">
<rect opacity="0.01" width="24" height="24" fill="#D8D8D8"/>
<rect opacity="0.01" x="2" y="2" width="20" height="20" fill="#D8D8D8"/>
<path d="M21.75 18.5C21.75 20.2949 20.2949 21.75 18.5 21.75H5.5C3.70507 21.75 2.25 20.2949 2.25 18.5V12.75H21.75V18.5ZM8.25 15C8.11193 15 8 15.1119 8 15.25V16C8 16 7.99991 16.8283 8.63867 17.4141C8.63867 17.4141 9.278 17.9999 10.1816 18H13.8184C13.8328 18 14.7275 17.9951 15.3613 17.4141C15.3763 17.4002 16 16.8185 16 16V15.25C16 15.1119 15.8881 15 15.75 15H14.0684C13.9303 15 13.8184 15.1119 13.8184 15.25V16H10.1816V15.25C10.1816 15.1119 10.0697 15 9.93164 15H8.25ZM18.5 2.25C20.2949 2.25 21.75 3.70507 21.75 5.5V11.25H2.25V5.5C2.25 3.70507 3.70507 2.25 5.5 2.25H18.5ZM8.25 6C8.11193 6 8 6.11193 8 6.25V7C8 7 7.99991 7.82829 8.63867 8.41406C8.63867 8.41406 9.278 8.99992 10.1816 9H13.8184C13.8328 8.99996 14.7275 8.9951 15.3613 8.41406C15.3763 8.40022 16 7.81849 16 7V6.25C16 6.11193 15.8881 6 15.75 6H14.0684C13.9303 6 13.8184 6.11193 13.8184 6.25V7H10.1816V6.25C10.1816 6.11193 10.0697 6 9.93164 6H8.25Z" fill="white"/>
</svg>
